<mxfile host="app.diagrams.net" modified="2023-08-14T20:36:59.112Z" agent="Mozilla/5.0 (X11; Linux x86_64; rv:109.0) Gecko/20100101 Firefox/115.0" etag="IZAJEgmx71uhBFqOovpB" version="21.6.8" type="device">
  <diagram name="Page-1" id="PRkF6NPm6eRyjLxU5dd9">
    <mxGraphModel dx="1434" dy="748" grid="1" gridSize="10" guides="1" tooltips="1" connect="1" arrows="1" fold="1" page="1" pageScale="1" pageWidth="850" pageHeight="1100" math="0" shadow="0">
      <root>
        <mxCell id="0" />
        <mxCell id="1" parent="0" />
        <mxCell id="PdLuTs7CNeg5tfp90sMr-1" value="&lt;div&gt;(Master)&lt;br&gt;&lt;/div&gt;&lt;div&gt;Message Director&lt;/div&gt;" style="whiteSpace=wrap;html=1;aspect=fixed;" parent="1" vertex="1">
          <mxGeometry x="385" y="320" width="80" height="80" as="geometry" />
        </mxCell>
        <mxCell id="PdLuTs7CNeg5tfp90sMr-2" value="Client Agent" style="whiteSpace=wrap;html=1;aspect=fixed;fillColor=#dae8fc;strokeColor=#6c8ebf;" parent="1" vertex="1">
          <mxGeometry x="385" y="480" width="80" height="80" as="geometry" />
        </mxCell>
        <mxCell id="PdLuTs7CNeg5tfp90sMr-4" value="Client Agent" style="whiteSpace=wrap;html=1;aspect=fixed;fillColor=#dae8fc;strokeColor=#6c8ebf;" parent="1" vertex="1">
          <mxGeometry x="530" y="480" width="80" height="80" as="geometry" />
        </mxCell>
        <mxCell id="PdLuTs7CNeg5tfp90sMr-5" value="Client Agent" style="whiteSpace=wrap;html=1;aspect=fixed;fillColor=#dae8fc;strokeColor=#6c8ebf;" parent="1" vertex="1">
          <mxGeometry x="240" y="480" width="80" height="80" as="geometry" />
        </mxCell>
        <mxCell id="PdLuTs7CNeg5tfp90sMr-6" value="Event Logger" style="whiteSpace=wrap;html=1;aspect=fixed;fillColor=#d5e8d4;strokeColor=#82b366;" parent="1" vertex="1">
          <mxGeometry x="585" y="320" width="80" height="80" as="geometry" />
        </mxCell>
        <mxCell id="PdLuTs7CNeg5tfp90sMr-8" value="MD" style="whiteSpace=wrap;html=1;aspect=fixed;" parent="1" vertex="1">
          <mxGeometry x="410" y="220" width="30" height="30" as="geometry" />
        </mxCell>
        <mxCell id="PdLuTs7CNeg5tfp90sMr-9" value="State Server" style="whiteSpace=wrap;html=1;aspect=fixed;fillColor=#fff2cc;strokeColor=#d6b656;" parent="1" vertex="1">
          <mxGeometry x="385" y="130" width="80" height="80" as="geometry" />
        </mxCell>
        <mxCell id="PdLuTs7CNeg5tfp90sMr-10" value="" style="endArrow=classic;startArrow=classic;html=1;rounded=0;exitX=0.5;exitY=0;exitDx=0;exitDy=0;entryX=0;entryY=1;entryDx=0;entryDy=0;" parent="1" source="8zI64fod37zU8jOMHMjX-1" target="PdLuTs7CNeg5tfp90sMr-1" edge="1">
          <mxGeometry width="50" height="50" relative="1" as="geometry">
            <mxPoint x="400" y="480" as="sourcePoint" />
            <mxPoint x="450" y="430" as="targetPoint" />
          </mxGeometry>
        </mxCell>
        <mxCell id="PdLuTs7CNeg5tfp90sMr-11" value="" style="endArrow=classic;startArrow=classic;html=1;rounded=0;entryX=0.5;entryY=1;entryDx=0;entryDy=0;exitX=0.5;exitY=0;exitDx=0;exitDy=0;" parent="1" source="8zI64fod37zU8jOMHMjX-2" target="PdLuTs7CNeg5tfp90sMr-1" edge="1">
          <mxGeometry width="50" height="50" relative="1" as="geometry">
            <mxPoint x="360" y="450" as="sourcePoint" />
            <mxPoint x="450" y="430" as="targetPoint" />
          </mxGeometry>
        </mxCell>
        <mxCell id="PdLuTs7CNeg5tfp90sMr-12" value="" style="endArrow=classic;startArrow=classic;html=1;rounded=0;entryX=1;entryY=1;entryDx=0;entryDy=0;exitX=0.5;exitY=0;exitDx=0;exitDy=0;" parent="1" source="8zI64fod37zU8jOMHMjX-3" target="PdLuTs7CNeg5tfp90sMr-1" edge="1">
          <mxGeometry width="50" height="50" relative="1" as="geometry">
            <mxPoint x="540" y="420" as="sourcePoint" />
            <mxPoint x="450" y="430" as="targetPoint" />
          </mxGeometry>
        </mxCell>
        <mxCell id="PdLuTs7CNeg5tfp90sMr-13" value="" style="endArrow=classic;startArrow=classic;html=1;rounded=0;entryX=0.5;entryY=1;entryDx=0;entryDy=0;exitX=0.5;exitY=0;exitDx=0;exitDy=0;" parent="1" source="PdLuTs7CNeg5tfp90sMr-1" target="PdLuTs7CNeg5tfp90sMr-8" edge="1">
          <mxGeometry width="50" height="50" relative="1" as="geometry">
            <mxPoint x="400" y="480" as="sourcePoint" />
            <mxPoint x="450" y="430" as="targetPoint" />
          </mxGeometry>
        </mxCell>
        <mxCell id="PdLuTs7CNeg5tfp90sMr-14" value="" style="endArrow=none;html=1;rounded=0;entryX=0.5;entryY=1;entryDx=0;entryDy=0;exitX=0.5;exitY=0;exitDx=0;exitDy=0;" parent="1" source="PdLuTs7CNeg5tfp90sMr-8" target="PdLuTs7CNeg5tfp90sMr-9" edge="1">
          <mxGeometry width="50" height="50" relative="1" as="geometry">
            <mxPoint x="400" y="460" as="sourcePoint" />
            <mxPoint x="450" y="410" as="targetPoint" />
          </mxGeometry>
        </mxCell>
        <mxCell id="PdLuTs7CNeg5tfp90sMr-16" value="" style="endArrow=classic;startArrow=classic;html=1;rounded=0;entryX=1;entryY=0.5;entryDx=0;entryDy=0;exitX=0;exitY=0.5;exitDx=0;exitDy=0;" parent="1" source="PdLuTs7CNeg5tfp90sMr-6" target="PdLuTs7CNeg5tfp90sMr-1" edge="1">
          <mxGeometry width="50" height="50" relative="1" as="geometry">
            <mxPoint x="400" y="480" as="sourcePoint" />
            <mxPoint x="450" y="430" as="targetPoint" />
          </mxGeometry>
        </mxCell>
        <mxCell id="PdLuTs7CNeg5tfp90sMr-17" value="UDP" style="text;html=1;strokeColor=none;fillColor=none;align=center;verticalAlign=middle;whiteSpace=wrap;rounded=0;rotation=0;fontStyle=3" parent="1" vertex="1">
          <mxGeometry x="491.5" y="335" width="70" height="20" as="geometry" />
        </mxCell>
        <mxCell id="PdLuTs7CNeg5tfp90sMr-18" value="Trusted Zone" style="text;html=1;strokeColor=none;fillColor=none;align=center;verticalAlign=middle;whiteSpace=wrap;rounded=0;" parent="1" vertex="1">
          <mxGeometry x="100" y="485" width="110" height="30" as="geometry" />
        </mxCell>
        <mxCell id="PdLuTs7CNeg5tfp90sMr-19" value="" style="endArrow=none;dashed=1;html=1;dashPattern=1 3;strokeWidth=2;rounded=0;exitX=1;exitY=0.5;exitDx=0;exitDy=0;entryX=0;entryY=0.5;entryDx=0;entryDy=0;fontColor=#FF6666;" parent="1" source="PdLuTs7CNeg5tfp90sMr-5" target="PdLuTs7CNeg5tfp90sMr-2" edge="1">
          <mxGeometry width="50" height="50" relative="1" as="geometry">
            <mxPoint x="400" y="480" as="sourcePoint" />
            <mxPoint x="450" y="430" as="targetPoint" />
          </mxGeometry>
        </mxCell>
        <mxCell id="PdLuTs7CNeg5tfp90sMr-20" value="" style="endArrow=none;dashed=1;html=1;dashPattern=1 3;strokeWidth=2;rounded=0;exitX=1;exitY=0.5;exitDx=0;exitDy=0;entryX=0;entryY=0.5;entryDx=0;entryDy=0;fontColor=#FF6666;" parent="1" source="PdLuTs7CNeg5tfp90sMr-2" target="PdLuTs7CNeg5tfp90sMr-4" edge="1">
          <mxGeometry width="50" height="50" relative="1" as="geometry">
            <mxPoint x="400" y="480" as="sourcePoint" />
            <mxPoint x="450" y="430" as="targetPoint" />
          </mxGeometry>
        </mxCell>
        <mxCell id="PdLuTs7CNeg5tfp90sMr-22" value="" style="endArrow=none;dashed=1;html=1;dashPattern=1 3;strokeWidth=2;rounded=0;exitX=0;exitY=0.5;exitDx=0;exitDy=0;fontColor=#FF6666;" parent="1" source="PdLuTs7CNeg5tfp90sMr-5" edge="1">
          <mxGeometry width="50" height="50" relative="1" as="geometry">
            <mxPoint x="400" y="480" as="sourcePoint" />
            <mxPoint x="90" y="520" as="targetPoint" />
          </mxGeometry>
        </mxCell>
        <mxCell id="PdLuTs7CNeg5tfp90sMr-23" value="Public Internet" style="ellipse;shape=cloud;whiteSpace=wrap;html=1;" parent="1" vertex="1">
          <mxGeometry x="328" y="600" width="195" height="80" as="geometry" />
        </mxCell>
        <mxCell id="PdLuTs7CNeg5tfp90sMr-24" value="" style="endArrow=classic;startArrow=classic;html=1;rounded=0;exitX=0.5;exitY=1;exitDx=0;exitDy=0;entryX=0.25;entryY=0.25;entryDx=0;entryDy=0;entryPerimeter=0;" parent="1" source="PdLuTs7CNeg5tfp90sMr-5" target="PdLuTs7CNeg5tfp90sMr-23" edge="1">
          <mxGeometry width="50" height="50" relative="1" as="geometry">
            <mxPoint x="400" y="480" as="sourcePoint" />
            <mxPoint x="450" y="430" as="targetPoint" />
          </mxGeometry>
        </mxCell>
        <mxCell id="PdLuTs7CNeg5tfp90sMr-25" value="" style="endArrow=classic;startArrow=classic;html=1;rounded=0;exitX=0.625;exitY=0.2;exitDx=0;exitDy=0;exitPerimeter=0;entryX=0.5;entryY=1;entryDx=0;entryDy=0;" parent="1" source="PdLuTs7CNeg5tfp90sMr-23" target="PdLuTs7CNeg5tfp90sMr-2" edge="1">
          <mxGeometry width="50" height="50" relative="1" as="geometry">
            <mxPoint x="400" y="480" as="sourcePoint" />
            <mxPoint x="450" y="430" as="targetPoint" />
          </mxGeometry>
        </mxCell>
        <mxCell id="PdLuTs7CNeg5tfp90sMr-26" value="" style="endArrow=classic;startArrow=classic;html=1;rounded=0;exitX=0.88;exitY=0.25;exitDx=0;exitDy=0;exitPerimeter=0;entryX=0.5;entryY=1;entryDx=0;entryDy=0;" parent="1" source="PdLuTs7CNeg5tfp90sMr-23" target="PdLuTs7CNeg5tfp90sMr-4" edge="1">
          <mxGeometry width="50" height="50" relative="1" as="geometry">
            <mxPoint x="400" y="480" as="sourcePoint" />
            <mxPoint x="450" y="430" as="targetPoint" />
          </mxGeometry>
        </mxCell>
        <mxCell id="PdLuTs7CNeg5tfp90sMr-27" value="" style="image;aspect=fixed;perimeter=ellipsePerimeter;html=1;align=center;shadow=0;dashed=0;spacingTop=3;image=img/lib/active_directory/laptop_client.svg;" parent="1" vertex="1">
          <mxGeometry x="300" y="700" width="45" height="50" as="geometry" />
        </mxCell>
        <mxCell id="PdLuTs7CNeg5tfp90sMr-29" value="" style="image;aspect=fixed;perimeter=ellipsePerimeter;html=1;align=center;shadow=0;dashed=0;spacingTop=3;image=img/lib/active_directory/vista_client.svg;" parent="1" vertex="1">
          <mxGeometry x="406" y="710" width="38" height="50" as="geometry" />
        </mxCell>
        <mxCell id="PdLuTs7CNeg5tfp90sMr-30" value="" style="image;aspect=fixed;perimeter=ellipsePerimeter;html=1;align=center;shadow=0;dashed=0;spacingTop=3;image=img/lib/active_directory/mac_client.svg;" parent="1" vertex="1">
          <mxGeometry x="503" y="700" width="47" height="50" as="geometry" />
        </mxCell>
        <mxCell id="PdLuTs7CNeg5tfp90sMr-31" value="" style="endArrow=classic;startArrow=classic;html=1;rounded=0;exitX=1;exitY=0;exitDx=0;exitDy=0;entryX=0.31;entryY=0.8;entryDx=0;entryDy=0;entryPerimeter=0;" parent="1" source="PdLuTs7CNeg5tfp90sMr-27" target="PdLuTs7CNeg5tfp90sMr-23" edge="1">
          <mxGeometry width="50" height="50" relative="1" as="geometry">
            <mxPoint x="400" y="510" as="sourcePoint" />
            <mxPoint x="450" y="460" as="targetPoint" />
          </mxGeometry>
        </mxCell>
        <mxCell id="PdLuTs7CNeg5tfp90sMr-32" value="" style="endArrow=classic;startArrow=classic;html=1;rounded=0;exitX=0.5;exitY=0;exitDx=0;exitDy=0;entryX=0.55;entryY=0.95;entryDx=0;entryDy=0;entryPerimeter=0;" parent="1" source="PdLuTs7CNeg5tfp90sMr-29" target="PdLuTs7CNeg5tfp90sMr-23" edge="1">
          <mxGeometry width="50" height="50" relative="1" as="geometry">
            <mxPoint x="400" y="510" as="sourcePoint" />
            <mxPoint x="450" y="460" as="targetPoint" />
          </mxGeometry>
        </mxCell>
        <mxCell id="PdLuTs7CNeg5tfp90sMr-33" value="" style="endArrow=classic;startArrow=classic;html=1;rounded=0;exitX=0.25;exitY=0;exitDx=0;exitDy=0;entryX=0.8;entryY=0.8;entryDx=0;entryDy=0;entryPerimeter=0;" parent="1" source="PdLuTs7CNeg5tfp90sMr-30" target="PdLuTs7CNeg5tfp90sMr-23" edge="1">
          <mxGeometry width="50" height="50" relative="1" as="geometry">
            <mxPoint x="400" y="510" as="sourcePoint" />
            <mxPoint x="450" y="460" as="targetPoint" />
          </mxGeometry>
        </mxCell>
        <mxCell id="PdLuTs7CNeg5tfp90sMr-34" value="" style="endArrow=none;html=1;rounded=0;entryX=0.5;entryY=1;entryDx=0;entryDy=0;exitX=0.5;exitY=0;exitDx=0;exitDy=0;" parent="1" source="PdLuTs7CNeg5tfp90sMr-36" target="PdLuTs7CNeg5tfp90sMr-35" edge="1">
          <mxGeometry width="50" height="50" relative="1" as="geometry">
            <mxPoint x="540" y="460" as="sourcePoint" />
            <mxPoint x="590" y="410" as="targetPoint" />
          </mxGeometry>
        </mxCell>
        <mxCell id="PdLuTs7CNeg5tfp90sMr-35" value="State Server" style="whiteSpace=wrap;html=1;aspect=fixed;fillColor=#fff2cc;strokeColor=#d6b656;" parent="1" vertex="1">
          <mxGeometry x="525" y="130" width="80" height="80" as="geometry" />
        </mxCell>
        <mxCell id="PdLuTs7CNeg5tfp90sMr-36" value="MD" style="whiteSpace=wrap;html=1;aspect=fixed;" parent="1" vertex="1">
          <mxGeometry x="550" y="220" width="30" height="30" as="geometry" />
        </mxCell>
        <mxCell id="PdLuTs7CNeg5tfp90sMr-37" value="" style="endArrow=none;html=1;rounded=0;entryX=0.5;entryY=1;entryDx=0;entryDy=0;exitX=0.5;exitY=0;exitDx=0;exitDy=0;" parent="1" source="PdLuTs7CNeg5tfp90sMr-39" target="PdLuTs7CNeg5tfp90sMr-38" edge="1">
          <mxGeometry width="50" height="50" relative="1" as="geometry">
            <mxPoint x="262" y="460" as="sourcePoint" />
            <mxPoint x="312" y="410" as="targetPoint" />
          </mxGeometry>
        </mxCell>
        <mxCell id="PdLuTs7CNeg5tfp90sMr-38" value="State Server" style="whiteSpace=wrap;html=1;aspect=fixed;fillColor=#fff2cc;strokeColor=#d6b656;" parent="1" vertex="1">
          <mxGeometry x="247" y="130" width="80" height="80" as="geometry" />
        </mxCell>
        <mxCell id="PdLuTs7CNeg5tfp90sMr-39" value="MD" style="whiteSpace=wrap;html=1;aspect=fixed;" parent="1" vertex="1">
          <mxGeometry x="272" y="220" width="30" height="30" as="geometry" />
        </mxCell>
        <mxCell id="PdLuTs7CNeg5tfp90sMr-40" value="" style="endArrow=classic;startArrow=classic;html=1;rounded=0;exitX=0.5;exitY=1;exitDx=0;exitDy=0;entryX=0;entryY=0;entryDx=0;entryDy=0;" parent="1" source="PdLuTs7CNeg5tfp90sMr-39" target="PdLuTs7CNeg5tfp90sMr-1" edge="1">
          <mxGeometry width="50" height="50" relative="1" as="geometry">
            <mxPoint x="295" y="310" as="sourcePoint" />
            <mxPoint x="345" y="260" as="targetPoint" />
          </mxGeometry>
        </mxCell>
        <mxCell id="PdLuTs7CNeg5tfp90sMr-41" value="" style="endArrow=classic;startArrow=classic;html=1;rounded=0;entryX=0.5;entryY=1;entryDx=0;entryDy=0;exitX=1;exitY=0;exitDx=0;exitDy=0;" parent="1" source="PdLuTs7CNeg5tfp90sMr-1" target="PdLuTs7CNeg5tfp90sMr-36" edge="1">
          <mxGeometry width="50" height="50" relative="1" as="geometry">
            <mxPoint x="400" y="470" as="sourcePoint" />
            <mxPoint x="450" y="420" as="targetPoint" />
          </mxGeometry>
        </mxCell>
        <mxCell id="PdLuTs7CNeg5tfp90sMr-43" value="Database Server" style="whiteSpace=wrap;html=1;aspect=fixed;fillColor=#f5f5f5;fontColor=#333333;strokeColor=#666666;" parent="1" vertex="1">
          <mxGeometry x="178" y="310" width="80" height="80" as="geometry" />
        </mxCell>
        <mxCell id="PdLuTs7CNeg5tfp90sMr-44" value="" style="endArrow=classic;startArrow=classic;html=1;rounded=0;entryX=0;entryY=0.5;entryDx=0;entryDy=0;exitX=1;exitY=0.5;exitDx=0;exitDy=0;" parent="1" source="PdLuTs7CNeg5tfp90sMr-45" target="PdLuTs7CNeg5tfp90sMr-1" edge="1">
          <mxGeometry width="50" height="50" relative="1" as="geometry">
            <mxPoint x="340" y="390" as="sourcePoint" />
            <mxPoint x="450" y="420" as="targetPoint" />
          </mxGeometry>
        </mxCell>
        <mxCell id="PdLuTs7CNeg5tfp90sMr-45" value="MD" style="whiteSpace=wrap;html=1;aspect=fixed;" parent="1" vertex="1">
          <mxGeometry x="270" y="335" width="30" height="30" as="geometry" />
        </mxCell>
        <mxCell id="PdLuTs7CNeg5tfp90sMr-46" value="" style="endArrow=none;html=1;rounded=0;entryX=0;entryY=0.5;entryDx=0;entryDy=0;exitX=1;exitY=0.5;exitDx=0;exitDy=0;" parent="1" source="PdLuTs7CNeg5tfp90sMr-43" target="PdLuTs7CNeg5tfp90sMr-45" edge="1">
          <mxGeometry width="50" height="50" relative="1" as="geometry">
            <mxPoint x="408" y="440" as="sourcePoint" />
            <mxPoint x="458" y="390" as="targetPoint" />
          </mxGeometry>
        </mxCell>
        <mxCell id="PdLuTs7CNeg5tfp90sMr-47" value="SQL*" style="shape=cylinder3;whiteSpace=wrap;html=1;boundedLbl=1;backgroundOutline=1;size=15;" parent="1" vertex="1">
          <mxGeometry x="98" y="310" width="60" height="80" as="geometry" />
        </mxCell>
        <mxCell id="PdLuTs7CNeg5tfp90sMr-49" value="" style="endArrow=none;dashed=1;html=1;dashPattern=1 3;strokeWidth=2;rounded=0;exitX=0;exitY=0.5;exitDx=0;exitDy=0;fontColor=#FF6666;" parent="1" edge="1">
          <mxGeometry width="50" height="50" relative="1" as="geometry">
            <mxPoint x="760" y="519.5" as="sourcePoint" />
            <mxPoint x="610" y="519.5" as="targetPoint" />
          </mxGeometry>
        </mxCell>
        <mxCell id="PdLuTs7CNeg5tfp90sMr-50" value="* Could be a different database backend in the future, such as MongoDB." style="text;html=1;strokeColor=none;fillColor=none;align=center;verticalAlign=middle;whiteSpace=wrap;rounded=0;" parent="1" vertex="1">
          <mxGeometry x="100" y="680" width="150" height="50" as="geometry" />
        </mxCell>
        <mxCell id="8zI64fod37zU8jOMHMjX-1" value="MD" style="whiteSpace=wrap;html=1;aspect=fixed;" vertex="1" parent="1">
          <mxGeometry x="265" y="440" width="30" height="30" as="geometry" />
        </mxCell>
        <mxCell id="8zI64fod37zU8jOMHMjX-2" value="MD" style="whiteSpace=wrap;html=1;aspect=fixed;" vertex="1" parent="1">
          <mxGeometry x="410" y="440" width="30" height="30" as="geometry" />
        </mxCell>
        <mxCell id="8zI64fod37zU8jOMHMjX-3" value="MD" style="whiteSpace=wrap;html=1;aspect=fixed;" vertex="1" parent="1">
          <mxGeometry x="555" y="440" width="30" height="30" as="geometry" />
        </mxCell>
        <mxCell id="8zI64fod37zU8jOMHMjX-4" value="" style="endArrow=none;html=1;rounded=0;exitX=0.5;exitY=0;exitDx=0;exitDy=0;entryX=0.5;entryY=1;entryDx=0;entryDy=0;" edge="1" parent="1" source="PdLuTs7CNeg5tfp90sMr-2" target="8zI64fod37zU8jOMHMjX-2">
          <mxGeometry width="50" height="50" relative="1" as="geometry">
            <mxPoint x="400" y="480" as="sourcePoint" />
            <mxPoint x="450" y="430" as="targetPoint" />
          </mxGeometry>
        </mxCell>
        <mxCell id="8zI64fod37zU8jOMHMjX-5" value="" style="endArrow=none;html=1;rounded=0;entryX=0.5;entryY=1;entryDx=0;entryDy=0;exitX=0.5;exitY=0;exitDx=0;exitDy=0;" edge="1" parent="1" source="PdLuTs7CNeg5tfp90sMr-5" target="8zI64fod37zU8jOMHMjX-1">
          <mxGeometry width="50" height="50" relative="1" as="geometry">
            <mxPoint x="400" y="480" as="sourcePoint" />
            <mxPoint x="450" y="430" as="targetPoint" />
          </mxGeometry>
        </mxCell>
        <mxCell id="8zI64fod37zU8jOMHMjX-6" value="" style="endArrow=none;html=1;rounded=0;entryX=0.5;entryY=1;entryDx=0;entryDy=0;exitX=0.5;exitY=0;exitDx=0;exitDy=0;" edge="1" parent="1" source="PdLuTs7CNeg5tfp90sMr-4" target="8zI64fod37zU8jOMHMjX-3">
          <mxGeometry width="50" height="50" relative="1" as="geometry">
            <mxPoint x="400" y="480" as="sourcePoint" />
            <mxPoint x="450" y="430" as="targetPoint" />
          </mxGeometry>
        </mxCell>
        <mxCell id="8zI64fod37zU8jOMHMjX-7" value="AI" style="shape=process;whiteSpace=wrap;html=1;backgroundOutline=1;" vertex="1" parent="1">
          <mxGeometry x="240" y="100" width="40" height="20" as="geometry" />
        </mxCell>
        <mxCell id="8zI64fod37zU8jOMHMjX-8" value="AI" style="shape=process;whiteSpace=wrap;html=1;backgroundOutline=1;" vertex="1" parent="1">
          <mxGeometry x="290" y="100" width="40" height="20" as="geometry" />
        </mxCell>
        <mxCell id="8zI64fod37zU8jOMHMjX-23" value="" style="endArrow=none;html=1;rounded=0;entryX=0;entryY=0.5;entryDx=0;entryDy=0;exitX=1;exitY=0.5;exitDx=0;exitDy=0;exitPerimeter=0;" edge="1" parent="1" source="PdLuTs7CNeg5tfp90sMr-47" target="PdLuTs7CNeg5tfp90sMr-43">
          <mxGeometry width="50" height="50" relative="1" as="geometry">
            <mxPoint x="368" y="440" as="sourcePoint" />
            <mxPoint x="418" y="390" as="targetPoint" />
          </mxGeometry>
        </mxCell>
        <mxCell id="8zI64fod37zU8jOMHMjX-24" value="" style="swimlane;startSize=0;" vertex="1" parent="1">
          <mxGeometry x="90" y="300" width="230" height="100" as="geometry" />
        </mxCell>
        <mxCell id="8zI64fod37zU8jOMHMjX-25" value="" style="swimlane;startSize=0;" vertex="1" parent="1">
          <mxGeometry x="230" y="90" width="110" height="170" as="geometry">
            <mxRectangle x="230" y="90" width="50" height="40" as="alternateBounds" />
          </mxGeometry>
        </mxCell>
        <mxCell id="8zI64fod37zU8jOMHMjX-26" value="" style="swimlane;startSize=0;" vertex="1" parent="1">
          <mxGeometry x="370" y="90" width="110" height="170" as="geometry" />
        </mxCell>
        <mxCell id="8zI64fod37zU8jOMHMjX-9" value="AI" style="shape=process;whiteSpace=wrap;html=1;backgroundOutline=1;" vertex="1" parent="8zI64fod37zU8jOMHMjX-26">
          <mxGeometry x="60" y="10" width="40" height="20" as="geometry" />
        </mxCell>
        <mxCell id="8zI64fod37zU8jOMHMjX-10" value="AI" style="shape=process;whiteSpace=wrap;html=1;backgroundOutline=1;" vertex="1" parent="8zI64fod37zU8jOMHMjX-26">
          <mxGeometry x="10" y="10" width="40" height="20" as="geometry" />
        </mxCell>
        <mxCell id="8zI64fod37zU8jOMHMjX-28" value="" style="swimlane;startSize=0;" vertex="1" parent="1">
          <mxGeometry x="510" y="90" width="110" height="170" as="geometry" />
        </mxCell>
        <mxCell id="8zI64fod37zU8jOMHMjX-11" value="AI" style="shape=process;whiteSpace=wrap;html=1;backgroundOutline=1;" vertex="1" parent="8zI64fod37zU8jOMHMjX-28">
          <mxGeometry x="60" y="10" width="40" height="20" as="geometry" />
        </mxCell>
        <mxCell id="8zI64fod37zU8jOMHMjX-12" value="AI" style="shape=process;whiteSpace=wrap;html=1;backgroundOutline=1;" vertex="1" parent="8zI64fod37zU8jOMHMjX-28">
          <mxGeometry x="10" y="10" width="40" height="20" as="geometry" />
        </mxCell>
        <mxCell id="8zI64fod37zU8jOMHMjX-29" value="" style="swimlane;startSize=0;" vertex="1" parent="1">
          <mxGeometry x="230" y="430" width="100" height="140" as="geometry" />
        </mxCell>
        <mxCell id="8zI64fod37zU8jOMHMjX-30" value="" style="swimlane;startSize=0;" vertex="1" parent="1">
          <mxGeometry x="375" y="430" width="100" height="140" as="geometry" />
        </mxCell>
        <mxCell id="8zI64fod37zU8jOMHMjX-31" value="" style="swimlane;startSize=0;" vertex="1" parent="1">
          <mxGeometry x="520" y="430" width="100" height="140" as="geometry" />
        </mxCell>
      </root>
    </mxGraphModel>
  </diagram>
</mxfile>
